<?xml version="1.0" standalone="no"?>
<!DOCTYPE svg PUBLIC "-//W3C//DTD SVG 20010904//EN"
 "http://www.w3.org/TR/2001/REC-SVG-20010904/DTD/svg10.dtd">
<svg version="1.0" xmlns="http://www.w3.org/2000/svg"
 width="697.000000pt" height="596.000000pt" viewBox="0 0 697.000000 596.000000"
 preserveAspectRatio="xMidYMid meet">

<g transform="translate(0.000000,596.000000) scale(0.100000,-0.100000)"
fill="#000000" stroke="none">
<path d="M3040 4779 c-189 -37 -319 -222 -320 -455 l0 -71 -97 -38 c-503 -195
-916 -573 -1161 -1061 -121 -242 -315 -818 -357 -1063 -34 -201 -44 -468 -24
-667 31 -320 126 -533 268 -597 84 -37 186 -4 340 111 92 69 302 277 430 427
52 61 98 112 103 113 5 2 7 -103 6 -235 l-3 -238 -157 -3 c-94 -1 -158 -6
-158 -12 0 -7 673 -10 1900 -10 1260 0 1900 3 1900 10 0 6 -88 10 -244 10
-135 0 -247 3 -249 7 -4 7 13 195 17 200 1 2 38 -4 82 -11 126 -22 234 -28
274 -13 60 21 72 59 67 207 -7 174 -64 448 -187 900 -17 63 -56 208 -85 322
-64 241 -109 366 -195 538 -239 478 -610 828 -1069 1010 -112 45 -330 104
-424 115 l-57 7 7 37 c23 106 -17 219 -112 313 -121 122 -321 181 -495 147z
m779 -551 c585 -124 1078 -528 1366 -1119 82 -168 124 -301 250 -776 179 -678
229 -952 195 -1075 -14 -50 -38 -61 -129 -60 -70 1 -249 27 -260 37 -2 3 5 96
16 208 11 111 18 205 16 210 -2 4 -92 7 -200 7 l-196 0 6 -170 c4 -93 5 -170
4 -170 -11 0 -380 110 -525 156 -145 46 -172 58 -168 72 3 9 26 86 52 170 l48
153 121 -7 c66 -4 248 -14 405 -24 157 -9 289 -13 294 -9 16 14 -11 17 -229
28 -115 7 -234 14 -262 17 l-53 5 0 75 c0 59 -3 74 -15 74 -12 0 -15 -15 -15
-76 l0 -75 -122 7 -123 7 -125 68 c-286 157 -466 180 -560 73 -41 -48 -60 -97
-60 -159 0 -115 100 -185 323 -224 95 -17 267 -25 267 -13 0 6 -37 13 -87 17
-330 25 -483 95 -483 221 0 54 46 143 88 171 96 63 266 26 515 -114 88 -49 97
-56 91 -78 -3 -14 -28 -93 -55 -177 -26 -83 -46 -155 -43 -159 2 -4 21 -13 42
-19 20 -7 40 -15 44 -19 7 -6 -86 -328 -97 -340 -5 -4 -44 6 -625 164 -278 75
-509 141 -514 145 -9 9 -7 18 172 595 71 231 178 578 238 770 59 193 111 354
115 359 7 8 1125 -290 1142 -304 4 -4 -56 -210 -133 -459 -126 -402 -147 -482
-124 -458 9 9 296 928 292 933 -2 2 -195 55 -428 119 -233 64 -426 117 -428
119 -2 2 2 22 8 43 7 22 11 77 8 124 -3 69 -9 96 -35 151 -39 84 -109 155
-188 194 -56 27 -68 29 -175 29 -105 0 -120 -2 -171 -28 -121 -59 -198 -159
-225 -291 -14 -69 -14 -83 0 -153 10 -51 28 -97 52 -136 43 -70 50 -51 -77
-212 l-91 -115 -53 0 c-49 0 -62 -6 -160 -70 -59 -39 -164 -112 -233 -163
-115 -83 -256 -177 -268 -177 -2 0 -4 146 -4 324 0 206 -4 327 -10 331 -7 4
-10 -107 -10 -327 0 -183 -4 -338 -8 -344 -4 -5 -80 -55 -169 -109 -146 -88
-182 -115 -154 -115 4 0 115 65 247 145 131 80 243 145 248 145 10 -1 172
-214 189 -250 16 -33 -117 -271 -256 -460 -164 -222 -463 -549 -617 -675 -140
-115 -255 -165 -328 -145 -54 14 -132 86 -170 157 -116 219 -152 692 -82 1095
42 247 218 774 346 1034 214 438 571 796 999 1000 61 29 142 64 181 78 l72 25
17 -47 c78 -210 219 -373 373 -433 87 -34 190 -32 264 4 124 61 208 218 208
389 0 47 5 77 17 94 15 23 20 25 67 19 28 -4 93 -16 145 -27z m-863 -105 c49
-72 73 -76 92 -16 l13 41 77 -36 c68 -32 86 -36 157 -37 93 0 153 19 221 71
24 19 47 34 51 34 13 0 -6 -147 -26 -200 -83 -218 -255 -289 -458 -189 -82 40
-187 142 -173 169 9 17 -4 86 -29 153 -18 46 -14 67 12 67 17 0 34 -15 63 -57z
m652 -563 c124 -55 204 -199 187 -332 -12 -84 -15 -85 -143 -49 -61 17 -116
31 -120 31 -5 0 -26 -56 -47 -125 -44 -143 -47 -145 -141 -101 -63 29 -116 81
-151 149 -24 45 -28 64 -28 137 0 73 4 92 28 137 82 157 259 222 415 153z
m-325 -644 c12 -8 46 -22 75 -32 51 -16 54 -18 48 -46 -3 -16 -100 -334 -216
-707 -115 -373 -210 -683 -210 -689 0 -13 -27 -5 644 -187 296 -80 542 -143
546 -138 4 4 31 85 60 178 28 94 54 172 56 174 2 2 60 -13 129 -34 l125 -39 0
-198 0 -198 -1145 0 -1145 0 0 259 0 259 81 108 c94 126 171 248 229 364 68
135 72 111 -41 261 -54 73 -99 135 -99 138 1 8 200 153 339 245 70 47 123 76
140 76 39 -1 153 -43 202 -76 24 -16 48 -41 53 -55 20 -59 -90 -216 -194 -277
-44 -26 -48 -27 -222 -27 -98 0 -178 -3 -178 -7 0 -12 112 -23 226 -22 99 0
117 3 166 27 103 50 228 208 228 288 0 31 -28 66 -92 114 l-26 20 94 118 c52
64 97 117 100 117 3 0 15 -6 27 -14z m1962 -1343 c-3 -32 -17 -170 -30 -308
-14 -137 -25 -253 -25 -257 0 -5 -58 -8 -129 -8 l-129 0 -6 43 c-3 23 -8 130
-11 237 -3 107 -8 230 -11 273 l-5 77 175 0 176 0 -5 -57z m-509 -235 l152
-43 6 -65 c3 -36 6 -102 6 -147 l0 -83 -165 0 -165 0 0 190 c0 105 3 190 8
190 4 0 75 -19 158 -42z"/>
<path d="M3135 3941 c-51 -11 -33 -25 27 -22 63 3 88 -7 135 -52 38 -36 56
-29 27 10 -37 49 -123 78 -189 64z"/>
<path d="M840 990 c0 -6 42 -10 105 -10 63 0 105 4 105 10 0 6 -42 10 -105 10
-63 0 -105 -4 -105 -10z"/>
</g>
</svg>
